<svg width="28" height="28" viewBox="0 0 28 28" fill="none" xmlns="http://www.w3.org/2000/svg">
<path fill-rule="evenodd" clip-rule="evenodd" d="M21.2243 7.65212C19.6529 5.82772 17.3873 4.74645 14.9798 4.67189C14.8797 4.66838 14.7795 4.66663 14.6794 4.66663C12.3812 4.66777 10.1769 5.57801 8.54818 7.19843C5.73361 10.0057 5.19599 14.3689 7.24499 17.7747C7.6306 18.4083 7.53496 19.223 7.01308 19.7501L3.77882 22.9819C3.59633 23.1664 3.49588 23.4165 3.50013 23.6759C3.49961 23.9009 3.59099 24.1164 3.75313 24.2725C4.09888 24.5827 4.62532 24.5747 4.96144 24.2541L8.23919 20.9775C8.75498 20.4546 9.56166 20.3521 10.192 20.7293C11.5439 21.5448 13.0931 21.9754 14.6721 21.9744C17.1677 21.9737 19.5421 20.8994 21.1894 19.0258C24.0347 15.7728 24.0495 10.9226 21.2243 7.65212ZM19.9567 17.8024C18.6397 19.3503 16.7091 20.2422 14.6761 20.242C12.6436 20.2431 10.713 19.3524 9.39546 17.8057C7.21633 15.2149 7.21633 11.4334 9.39546 8.84263C10.7119 7.29444 12.6419 6.40183 14.6748 6.40103C16.7075 6.39985 18.6383 7.29054 19.956 8.83736C22.1378 11.4291 22.1381 15.2136 19.9567 17.8057V17.8024Z" fill="#F2F2F2"/>
<mask id="mask0_949_567" style="mask-type:luminance" maskUnits="userSpaceOnUse" x="3" y="4" width="21" height="21">
<path fill-rule="evenodd" clip-rule="evenodd" d="M21.2243 7.65212C19.6529 5.82772 17.3873 4.74645 14.9798 4.67189C14.8797 4.66838 14.7795 4.66663 14.6794 4.66663C12.3812 4.66777 10.1769 5.57801 8.54818 7.19843C5.73361 10.0057 5.19599 14.3689 7.24499 17.7747C7.6306 18.4083 7.53496 19.223 7.01308 19.7501L3.77882 22.9819C3.59633 23.1664 3.49588 23.4165 3.50013 23.6759C3.49961 23.9009 3.59099 24.1164 3.75313 24.2725C4.09888 24.5827 4.62532 24.5747 4.96144 24.2541L8.23919 20.9775C8.75498 20.4546 9.56166 20.3521 10.192 20.7293C11.5439 21.5448 13.0931 21.9754 14.6721 21.9744C17.1677 21.9737 19.5421 20.8994 21.1894 19.0258C24.0347 15.7728 24.0495 10.9226 21.2243 7.65212ZM19.9567 17.8024C18.6397 19.3503 16.7091 20.2422 14.6761 20.242C12.6436 20.2431 10.713 19.3524 9.39546 17.8057C7.21633 15.2149 7.21633 11.4334 9.39546 8.84263C10.7119 7.29444 12.6419 6.40183 14.6748 6.40103C16.7075 6.39985 18.6383 7.29054 19.956 8.83736C22.1378 11.4291 22.1381 15.2136 19.9567 17.8057V17.8024Z" fill="white"/>
</mask>
<g mask="url(#mask0_949_567)">
<path fill-rule="evenodd" clip-rule="evenodd" d="M28 28H0V0H28V28Z" fill="#F2F2F2"/>
</g>
</svg>
